<svg xmlns="http://www.w3.org/2000/svg" viewBox="0 0 65.28 101.55"><defs><style>.cls-1{fill:#d2741d;}.cls-2{fill:#1f1e21;}</style></defs><title>logo</title><g id="Capa_2" data-name="Capa 2"><g id="Capa_1-2" data-name="Capa 1"><polygon class="cls-1" points="32.12 68.85 40.88 41.22 23.88 41.22 32.12 68.85"/><path class="cls-2" d="M17.73,98.48a1.17,1.17,0,0,0,.79-1.11c0-.88-.48-1.4-1.77-1.4C15.89,96,15,96,15,96v5.43H16.7a3,3,0,0,0,1-.13,1.51,1.51,0,0,0,1.08-1.49A1.39,1.39,0,0,0,17.73,98.48Zm-1.68-1.63.69,0c.55,0,.7.3.7.71a.66.66,0,0,1-.49.68,2,2,0,0,1-.5,0h-.4Zm1.23,3.61a2.18,2.18,0,0,1-.65.06h-.58V99.05h.78a1.72,1.72,0,0,1,.45,0,.63.63,0,0,1,.44.67A.66.66,0,0,1,17.28,100.46ZM54.57,96l-2.08,5.42,1.17,0,.47-1.36H56l.47,1.36,1.21,0-2-5.42Zm-.17,3.24.48-1.42c.09-.27.22-.77.22-.78l.22.78.44,1.42Zm-44.08.22a1.56,1.56,0,0,1-.1.56,1,1,0,0,1-1,.54,1,1,0,0,1-1-.53,1.71,1.71,0,0,1-.08-.54V96H7v3.45a3,3,0,0,0,.13.89,2.07,2.07,0,0,0,2.1,1.19,2.1,2.1,0,0,0,2.12-1.21,3.07,3.07,0,0,0,.12-.91V96H10.32ZM63.39,96a6.11,6.11,0,0,0-.91-.06c-.62,0-1.72,0-1.72,0v5.43h1.43a4.84,4.84,0,0,0,1.31-.15,2.45,2.45,0,0,0,1.78-2.53C65.28,96.9,64.32,96.21,63.39,96Zm-.24,4.38a2.8,2.8,0,0,1-.88.1h-.4V96.88h.61c1.33,0,1.64.75,1.64,2A1.47,1.47,0,0,1,63.15,100.41ZM1.75,96C.91,96,0,96,0,96v5.43h1.1v-1.8h.35a3.76,3.76,0,0,0,1-.12A1.8,1.8,0,0,0,3.8,97.72C3.8,96.69,3.25,96,1.75,96Zm.35,2.7a1.72,1.72,0,0,1-.62.09H1.11V96.89h.62c.63,0,.92.25.92.91A.85.85,0,0,1,2.1,98.67Zm33.42,1.91c-.94,0-1.25-.94-1.25-1.94s.32-1.82,1.19-1.82a4.2,4.2,0,0,1,1.56.3l0-1a3.92,3.92,0,0,0-1.6-.29c-1.7,0-2.37,1.45-2.37,2.84s.66,2.83,2.34,2.83a4.25,4.25,0,0,0,2-.6l-.05-1A4.49,4.49,0,0,1,35.52,100.58Zm5.17.87h1.12V96H40.69ZM23.21,96h-1.1v5.43h3.38v-1H23.21Zm5.42,5.43h1.12V96H28.63ZM48,96a6.11,6.11,0,0,0-.91-.06c-.63,0-1.73,0-1.73,0v5.43h1.44a4.81,4.81,0,0,0,1.3-.15,2.46,2.46,0,0,0,1.79-2.53C49.87,96.9,48.91,96.21,48,96Zm-.25,4.38a2.77,2.77,0,0,1-.87.1h-.4V96.88h.61c1.32,0,1.64.75,1.64,2A1.46,1.46,0,0,1,47.73,100.41Z"/><path class="cls-2" d="M35.46,22.83l5.42,17.82L44.32,51.5l5.84,17,15.12-.62L40.05,0H26L0,67.87l14.61.62,5.83-17,3.44-10.85,5.95-17.82C31,19.39,32.64,13,32.64,13S34.52,19.7,35.46,22.83Z"/><polygon class="cls-1" points="5.83 93.56 7.42 88.55 4.34 88.55 5.83 93.56"/><polygon class="cls-1" points="49.95 93.56 51.55 88.55 48.46 88.55 49.95 93.56"/><path class="cls-2" d="M23.35,93.36V81.05H20.83v6.87A9.83,9.83,0,0,0,21,89.37l0,0s-.41-.81-.73-1.29l-5-7.12L13,81.11V93.4h2.56V86.65a9.67,9.67,0,0,0-.13-1.4l.05,0a9.63,9.63,0,0,0,.7,1.19l4.95,7.07Zm4.85,0V81.07H25.65V93.4Zm14.73,0-.44-12.31h-2.8l-2.23,6.41c-.34,1-.81,2.67-.83,2.74,0-.13-.47-1.79-.79-2.74l-2.2-6.41H30.69l-.34,12.31,2.44.07s0-4.35,0-5.21,0-3.22,0-3.24.72,2.55,1,3.46l1.7,4.94h2.06l1.74-5c.32-1,1-3.48,1.06-3.57s0,2.55,0,3.49c0,.34.06,5.16.06,5.16Zm14.12,0V81.07h2.5V91.13h5.18V93.4Zm-49-3L9.1,93.49l2.74-.11L7.27,81.07H4.72L0,93.38l2.65.11,1-3.08.63-2,1.08-3.23c.2-.62.51-1.78.51-1.78s.34,1.21.51,1.78l1,3.23Zm44.13,0,1.06,3.08L56,93.38,51.39,81.07H48.84L44.13,93.38l2.65.11,1.06-3.08.62-2,1.08-3.23c.21-.62.51-1.78.51-1.78s.34,1.21.51,1.78l1,3.23Z"/></g></g></svg>